<svg xmlns="http://www.w3.org/2000/svg" viewBox="0 0 24 24">
  <path fill="#ffffff" d="M12 .5C5.65.5.5 5.7.5 12.12c0 5.14 3.29 9.5 7.86 11.03.58.11.79-.25.79-.57 0-.28-.01-1.03-.02-2.02-3.2.7-3.88-1.56-3.88-1.56-.52-1.35-1.28-1.7-1.28-1.7-1.05-.73.08-.72.08-.72 1.15.08 1.76 1.2 1.76 1.2 1.03 1.79 2.69 1.27 3.35.98.1-.76.4-1.27.73-1.56-2.56-.29-5.25-1.3-5.25-5.78 0-1.28.46-2.33 1.2-3.15-.12-.3-.52-1.51.11-3.15 0 0 .98-.32 3.2 1.2a10.98 10.98 0 0 1 5.82 0c2.22-1.52 3.2-1.2 3.2-1.2.63 1.64.23 2.85.11 3.15.75.82 1.2 1.87 1.2 3.15 0 4.49-2.7 5.48-5.27 5.77.41.36.78 1.06.78 2.14 0 1.55-.01 2.8-.01 3.18 0 .31.21.69.8.57A11.66 11.66 0 0 0 23.5 12.12C23.5 5.7 18.35.5 12 .5Z"/>
</svg>
