<svg xmlns="http://www.w3.org/2000/svg" viewBox="0 0 24 24">
  <path fill="#4285F4" d="M23.49 12.27c0-.79-.07-1.54-.2-2.27H12v4.3h6.45a5.52 5.52 0 0 1-2.4 3.62v3.01h3.89c2.28-2.1 3.55-5.19 3.55-8.66Z"/>
  <path fill="#34A853" d="M12 24c3.24 0 5.96-1.07 7.95-2.91l-3.89-3.01c-1.08.72-2.46 1.15-4.06 1.15-3.12 0-5.76-2.11-6.71-4.95H1.27v3.11A12 12 0 0 0 12 24Z"/>
  <path fill="#FBBC05" d="M5.29 14.28A7.2 7.2 0 0 1 4.91 12c0-.79.13-1.55.38-2.28V6.61H1.27A12 12 0 0 0 0 12c0 1.93.46 3.76 1.27 5.39l4.02-3.11Z"/>
  <path fill="#EA4335" d="M12 4.77c1.76 0 3.33.61 4.57 1.81l3.43-3.43C17.96 1.14 15.24 0 12 0A12 12 0 0 0 1.27 6.61l4.02 3.11C6.24 6.88 8.88 4.77 12 4.77Z"/>
</svg>
